# xmcd
#
# Track frame offsets: 
#        150
#        19630
#        32820
#        55443
#        66687
#        102710
#        125087
#        145125
#        164242
#        177218
#        228076
#        256341
#        276930
#        289333
#        302911
#
# Disc length: 4468 seconds
#
# Revision: 0
# Processed by: cddbd v1.5.2PL0 Copyright (c) Steve Scherf et al.
# Submitted via: ExactAudioCopy v0.95b4
#
DISCID=f011720f
DTITLE=Muddy Waters - Live at the Fillmore 1966
DYEAR=2009
DGENRE=Blues
TTITLE0=Forty Days and Forty Nights
TTITLE1=Hoochie Coochie Man
TTITLE2=Rock Me
TTITLE3=Baby Please Don't Go
TTITLE4=She Moves Me
TTITLE5=Got My Mojo Working
TTITLE6=You Can't Lose What You Ain't Never Had
TTITLE7=Forty Days and Forty Nights
TTITLE8=Baby Please Don't Go
TTITLE9=Thirteen Highway
TTITLE10=Rock Me
TTITLE11=Honey Bee
TTITLE12=Trouble No More
TTITLE13=Hoochie Coochie Man 
TTITLE14=Long Distance Call
EXTD=
EXTT0=
EXTT1=
EXTT2=
EXTT3=
EXTT4=
EXTT5=
EXTT6=
EXTT7=
EXTT8=
EXTT9=
EXTT10=
EXTT11=
EXTT12=
EXTT13=
EXTT14=
PLAYORDER=
